<mxfile host="app.diagrams.net" modified="2023-06-08T07:47:37.880Z" agent="5.0 (Windows NT 10.0; Win64; x64) AppleWebKit/537.36 (KHTML, like Gecko) Chrome/113.0.0.0 Safari/537.36" etag="VTndMrE3vDv5aJMo72Av" version="20.8.23" type="github">
  <diagram name="第 1 页" id="p6MhWNOn5XpagDBgtA7_">
    <mxGraphModel dx="600" dy="327" grid="1" gridSize="10" guides="1" tooltips="1" connect="1" arrows="1" fold="1" page="1" pageScale="1" pageWidth="827" pageHeight="1169" math="0" shadow="0">
      <root>
        <mxCell id="0" />
        <mxCell id="1" parent="0" />
        <mxCell id="IOFlgF2U16kbHjgSP1Hr-7" style="edgeStyle=orthogonalEdgeStyle;rounded=0;orthogonalLoop=1;jettySize=auto;html=1;" edge="1" parent="1" source="IOFlgF2U16kbHjgSP1Hr-2" target="IOFlgF2U16kbHjgSP1Hr-5">
          <mxGeometry relative="1" as="geometry" />
        </mxCell>
        <mxCell id="IOFlgF2U16kbHjgSP1Hr-2" value="下载离线包" style="rounded=0;whiteSpace=wrap;html=1;" vertex="1" parent="1">
          <mxGeometry x="185" y="140" width="110" height="50" as="geometry" />
        </mxCell>
        <mxCell id="IOFlgF2U16kbHjgSP1Hr-4" style="edgeStyle=orthogonalEdgeStyle;rounded=0;orthogonalLoop=1;jettySize=auto;html=1;entryX=0.5;entryY=0;entryDx=0;entryDy=0;" edge="1" parent="1" source="IOFlgF2U16kbHjgSP1Hr-3" target="IOFlgF2U16kbHjgSP1Hr-2">
          <mxGeometry relative="1" as="geometry" />
        </mxCell>
        <mxCell id="IOFlgF2U16kbHjgSP1Hr-3" value="开始" style="rounded=1;whiteSpace=wrap;html=1;" vertex="1" parent="1">
          <mxGeometry x="200" y="70" width="80" height="40" as="geometry" />
        </mxCell>
        <mxCell id="IOFlgF2U16kbHjgSP1Hr-9" style="edgeStyle=orthogonalEdgeStyle;rounded=0;orthogonalLoop=1;jettySize=auto;html=1;entryX=1;entryY=0.5;entryDx=0;entryDy=0;" edge="1" parent="1" source="IOFlgF2U16kbHjgSP1Hr-5" target="IOFlgF2U16kbHjgSP1Hr-8">
          <mxGeometry relative="1" as="geometry" />
        </mxCell>
        <mxCell id="IOFlgF2U16kbHjgSP1Hr-5" value="判断是否为全量包下载" style="rhombus;whiteSpace=wrap;html=1;" vertex="1" parent="1">
          <mxGeometry x="175" y="220" width="130" height="70" as="geometry" />
        </mxCell>
        <mxCell id="IOFlgF2U16kbHjgSP1Hr-8" value="下载离线包" style="rounded=0;whiteSpace=wrap;html=1;" vertex="1" parent="1">
          <mxGeometry x="40" y="230" width="110" height="50" as="geometry" />
        </mxCell>
      </root>
    </mxGraphModel>
  </diagram>
</mxfile>
